<svg width="172" height="50" viewBox="0 0 172 50" fill="none" xmlns="http://www.w3.org/2000/svg">
<path d="M165.079 50H6.34921C2.85873 50 0 47.1859 0 43.75V6.25C0 2.81406 2.85873 0 6.34921 0H165.079C168.57 0 171.429 2.81406 171.429 6.25V43.75C171.429 47.1859 168.57 50 165.079 50Z" fill="black"/>
<path d="M165.079 1.00156C168.019 1.00156 170.411 3.35625 170.411 6.25V43.75C170.411 46.6437 168.019 48.9984 165.079 48.9984H6.34921C3.40952 48.9984 1.01746 46.6437 1.01746 43.75V6.25C1.01746 3.35625 3.40952 1.00156 6.34921 1.00156H165.079ZM165.079 0H6.34921C2.85873 0 0 2.81406 0 6.25V43.75C0 47.1859 2.85873 50 6.34921 50H165.079C168.57 50 171.429 47.1859 171.429 43.75V6.25C171.429 2.81406 168.57 0 165.079 0Z" fill="#A6A6A6"/>
<path d="M13.251 9.42348C12.878 9.80786 12.6621 10.4063 12.6621 11.1813V38.825C12.6621 39.6 12.878 40.1985 13.251 40.5829L13.3431 40.6672L29.0796 25.1829V24.8172L13.3431 9.33286L13.251 9.42348Z" fill="url(#paint0_linear_1003_4296)"/>
<path d="M34.3188 30.3469L29.0791 25.1829V24.8172L34.3251 19.6532L34.4426 19.7204L40.6553 23.2C42.4283 24.1875 42.4283 25.8125 40.6553 26.8063L34.4426 30.2797L34.3188 30.3469V30.3469Z" fill="url(#paint1_linear_1003_4296)"/>
<path d="M34.443 30.2798L29.0795 25.0002L13.251 40.583C13.8399 41.1923 14.8002 41.2658 15.8922 40.6564L34.443 30.2798" fill="url(#paint2_linear_1003_4296)"/>
<path d="M34.443 19.7203L15.8922 9.34375C14.8002 8.74063 13.8399 8.81406 13.251 9.42344L29.0795 25L34.443 19.7203Z" fill="url(#paint3_linear_1003_4296)"/>
<path d="M60.2123 12.8047C60.2123 13.8485 59.8949 14.6844 59.2695 15.3079C58.5504 16.0469 57.6139 16.4188 56.4663 16.4188C55.3695 16.4188 54.433 16.0407 53.6647 15.2954C52.8949 14.5391 52.5107 13.611 52.5107 12.5C52.5107 11.3891 52.8949 10.461 53.6647 9.71099C54.433 8.95942 55.3695 8.5813 56.4663 8.5813C57.0123 8.5813 57.533 8.69224 58.0298 8.89849C58.525 9.1063 58.9282 9.38755 59.2203 9.73442L58.5568 10.3938C58.0472 9.80161 57.3536 9.50942 56.4663 9.50942C55.6663 9.50942 54.9726 9.78442 54.3838 10.3391C53.8012 10.8954 53.5092 11.6157 53.5092 12.5C53.5092 13.3844 53.8012 14.111 54.3838 14.6672C54.9726 15.2157 55.6663 15.4969 56.4663 15.4969C57.3155 15.4969 58.0298 15.2157 58.5933 14.661C58.9647 14.2938 59.1758 13.7875 59.2314 13.1407H56.4663V12.2375H60.1552C60.1996 12.4329 60.2123 12.6219 60.2123 12.8047V12.8047Z" fill="white" stroke="white" stroke-width="0.16" stroke-miterlimit="10"/>
<path d="M66.0652 9.67349H62.6001V12.0485H65.7239V12.9516H62.6001V15.3266H66.0652V16.2469H61.6191V8.75317H66.0652V9.67349Z" fill="white" stroke="white" stroke-width="0.16" stroke-miterlimit="10"/>
<path d="M70.1952 16.2469H69.2143V9.67349H67.0889V8.75317H72.3222V9.67349H70.1952V16.2469V16.2469Z" fill="white" stroke="white" stroke-width="0.16" stroke-miterlimit="10"/>
<path d="M76.1094 16.2469V8.75317H77.0887V16.2469H76.1094Z" fill="white" stroke="white" stroke-width="0.16" stroke-miterlimit="10"/>
<path d="M81.4306 16.2469H80.4575V9.67349H78.3242V8.75317H83.5639V9.67349H81.4306V16.2469Z" fill="white" stroke="white" stroke-width="0.16" stroke-miterlimit="10"/>
<path d="M93.4712 15.2829C92.7205 16.0407 91.7903 16.4188 90.6808 16.4188C89.5649 16.4188 88.6347 16.0407 87.8839 15.2829C87.1347 14.5266 86.7617 13.5985 86.7617 12.5C86.7617 11.4016 87.1347 10.4735 87.8839 9.71724C88.6347 8.95942 89.5649 8.5813 90.6808 8.5813C91.7839 8.5813 92.7141 8.95942 93.4649 9.72349C94.2205 10.486 94.5935 11.4079 94.5935 12.5C94.5935 13.5985 94.2205 14.5266 93.4712 15.2829ZM88.6093 14.6547C89.1744 15.2157 89.8617 15.4969 90.6808 15.4969C91.4935 15.4969 92.1871 15.2157 92.7458 14.6547C93.3093 14.0938 93.595 13.3735 93.595 12.5C93.595 11.6266 93.3093 10.9063 92.7458 10.3454C92.1871 9.78442 91.4935 9.50317 90.6808 9.50317C89.8617 9.50317 89.1744 9.78442 88.6093 10.3454C88.0458 10.9063 87.7601 11.6266 87.7601 12.5C87.7601 13.3735 88.0458 14.0938 88.6093 14.6547V14.6547Z" fill="white" stroke="white" stroke-width="0.16" stroke-miterlimit="10"/>
<path d="M95.9697 16.2469V8.75317H97.1602L100.862 14.5813H100.905L100.862 13.1407V8.75317H101.841V16.2469H100.819L96.9427 10.1313H96.8999L96.9427 11.5782V16.2469H95.9697V16.2469Z" fill="white" stroke="white" stroke-width="0.16" stroke-miterlimit="10"/>
<path d="M86.5206 27.1907C83.5381 27.1907 81.1016 29.4251 81.1016 32.5079C81.1016 35.5657 83.5381 37.8235 86.5206 37.8235C89.5095 37.8235 91.946 35.5657 91.946 32.5079C91.946 29.4251 89.5095 27.1907 86.5206 27.1907ZM86.5206 35.7297C84.8841 35.7297 83.4762 34.4001 83.4762 32.5079C83.4762 30.5907 84.8841 29.2844 86.5206 29.2844C88.1571 29.2844 89.5714 30.5907 89.5714 32.5079C89.5714 34.4001 88.1571 35.7297 86.5206 35.7297V35.7297ZM74.6968 27.1907C71.7079 27.1907 69.2777 29.4251 69.2777 32.5079C69.2777 35.5657 71.7079 37.8235 74.6968 37.8235C77.6841 37.8235 80.1158 35.5657 80.1158 32.5079C80.1158 29.4251 77.6841 27.1907 74.6968 27.1907ZM74.6968 35.7297C73.0587 35.7297 71.646 34.4001 71.646 32.5079C71.646 30.5907 73.0587 29.2844 74.6968 29.2844C76.3333 29.2844 77.7412 30.5907 77.7412 32.5079C77.7412 34.4001 76.3333 35.7297 74.6968 35.7297ZM60.627 28.8204V31.0797H66.1079C65.9476 32.3422 65.519 33.2704 64.8619 33.9172C64.0619 34.6985 62.8158 35.5657 60.627 35.5657C57.2539 35.5657 54.6127 32.886 54.6127 29.5657C54.6127 26.2454 57.2539 23.5657 60.627 23.5657C62.4508 23.5657 63.7777 24.2672 64.7571 25.1766L66.3746 23.5844C65.0047 22.2969 63.1825 21.3079 60.627 21.3079C56.0016 21.3079 52.1143 25.0126 52.1143 29.5657C52.1143 34.1188 56.0016 37.8235 60.627 37.8235C63.127 37.8235 65.0047 37.0172 66.4809 35.5047C67.9936 34.0157 68.465 31.9219 68.465 30.2313C68.465 29.7063 68.4206 29.2235 68.3412 28.8204H60.627ZM118.16 30.5719C117.714 29.3829 116.338 27.1907 113.535 27.1907C110.757 27.1907 108.444 29.3454 108.444 32.5079C108.444 35.486 110.733 37.8235 113.802 37.8235C116.282 37.8235 117.714 36.3344 118.303 35.4672L116.462 34.2594C115.848 35.1438 115.011 35.7297 113.802 35.7297C112.6 35.7297 111.738 35.1876 111.186 34.1188L118.409 31.1766L118.16 30.5719V30.5719ZM110.795 32.3422C110.733 30.2922 112.413 29.2422 113.616 29.2422C114.559 29.2422 115.359 29.7063 115.625 30.3704L110.795 32.3422V32.3422ZM104.924 37.5001H107.298V21.8751H104.924V37.5001ZM101.035 28.3751H100.956C100.422 27.7532 99.4047 27.1907 98.1158 27.1907C95.4111 27.1907 92.9381 29.5282 92.9381 32.5251C92.9381 35.5047 95.4111 37.8235 98.1158 37.8235C99.4047 37.8235 100.422 37.2563 100.956 36.6157H101.035V37.3782C101.035 39.411 99.9317 40.5032 98.1523 40.5032C96.7015 40.5032 95.8015 39.4719 95.4301 38.6047L93.365 39.4532C93.9603 40.8625 95.5365 42.5969 98.1523 42.5969C100.936 42.5969 103.286 40.9844 103.286 37.061V27.5141H101.035V28.3751V28.3751ZM98.319 35.7297C96.6825 35.7297 95.3126 34.3813 95.3126 32.5251C95.3126 30.6516 96.6825 29.2844 98.319 29.2844C99.9317 29.2844 101.203 30.6516 101.203 32.5251C101.203 34.3813 99.9317 35.7297 98.319 35.7297V35.7297ZM129.278 21.8751H123.598V37.5001H125.967V31.5797H129.278C131.908 31.5797 134.487 29.7063 134.487 26.7266C134.487 23.7485 131.902 21.8751 129.278 21.8751V21.8751ZM129.34 29.4063H125.967V24.0485H129.34C131.108 24.0485 132.117 25.4938 132.117 26.7266C132.117 27.936 131.108 29.4063 129.34 29.4063ZM143.979 27.161C142.268 27.161 140.489 27.9047 139.757 29.5532L141.859 30.4204C142.311 29.5532 143.143 29.2719 144.022 29.2719C145.251 29.2719 146.497 29.9985 146.516 31.2813V31.4454C146.087 31.2016 145.17 30.8407 144.041 30.8407C141.778 30.8407 139.471 32.0672 139.471 34.3563C139.471 36.4501 141.325 37.7985 143.409 37.7985C145.003 37.7985 145.882 37.0907 146.435 36.2672H146.516V37.475H148.803V31.4813C148.803 28.711 146.702 27.161 143.979 27.161ZM143.694 35.7235C142.919 35.7235 141.84 35.3454 141.84 34.4001C141.84 33.1907 143.186 32.7266 144.351 32.7266C145.394 32.7266 145.882 32.9532 146.516 33.2516C146.33 34.6985 145.065 35.7235 143.694 35.7235V35.7235ZM157.136 27.5032L154.414 34.2766H154.333L151.519 27.5032H148.965L153.194 36.9688L150.781 42.236H153.255L159.771 27.5032H157.136V27.5032ZM135.789 37.5001H138.163V21.8751H135.789V37.5001Z" fill="white"/>
<defs>
<linearGradient id="paint0_linear_1003_4296" x1="27.6824" y1="39.1129" x2="6.70695" y2="17.8046" gradientUnits="userSpaceOnUse">
<stop stop-color="#00A0FF"/>
<stop offset="0.0066" stop-color="#00A1FF"/>
<stop offset="0.2601" stop-color="#00BEFF"/>
<stop offset="0.5122" stop-color="#00D2FF"/>
<stop offset="0.7604" stop-color="#00DFFF"/>
<stop offset="1" stop-color="#00E3FF"/>
</linearGradient>
<linearGradient id="paint1_linear_1003_4296" x1="42.9641" y1="24.9983" x2="12.2378" y2="24.9983" gradientUnits="userSpaceOnUse">
<stop stop-color="#FFE000"/>
<stop offset="0.4087" stop-color="#FFBD00"/>
<stop offset="0.7754" stop-color="#FFA500"/>
<stop offset="1" stop-color="#FF9C00"/>
</linearGradient>
<linearGradient id="paint2_linear_1003_4296" x1="31.5265" y1="22.13" x2="3.08218" y2="-6.76581" gradientUnits="userSpaceOnUse">
<stop stop-color="#FF3A44"/>
<stop offset="1" stop-color="#C31162"/>
</linearGradient>
<linearGradient id="paint3_linear_1003_4296" x1="9.2666" y1="49.7798" x2="21.9683" y2="36.8766" gradientUnits="userSpaceOnUse">
<stop stop-color="#32A071"/>
<stop offset="0.0685" stop-color="#2DA771"/>
<stop offset="0.4762" stop-color="#15CF74"/>
<stop offset="0.8009" stop-color="#06E775"/>
<stop offset="1" stop-color="#00F076"/>
</linearGradient>
</defs>
</svg>
